<mxfile host="app.diagrams.net" modified="2023-12-10T07:20:52.919Z" agent="Mozilla/5.0 (Macintosh; Intel Mac OS X 10_15_7) AppleWebKit/537.36 (KHTML, like Gecko) Chrome/120.0.0.0 Safari/537.36" etag="dw7Vqfi1Wv8PD4eZovir" version="22.1.7" type="github">
  <diagram name="Page-1" id="2YBvvXClWsGukQMizWep">
    <mxGraphModel dx="1205" dy="868" grid="1" gridSize="10" guides="1" tooltips="1" connect="1" arrows="1" fold="1" page="1" pageScale="1" pageWidth="850" pageHeight="1100" math="0" shadow="0">
      <root>
        <mxCell id="0" />
        <mxCell id="1" parent="0" />
        <mxCell id="AGJpqr2k6ZOeRzTML1ta-23" value="" style="rounded=0;whiteSpace=wrap;html=1;" vertex="1" parent="1">
          <mxGeometry x="40" y="320" width="640" height="370" as="geometry" />
        </mxCell>
        <mxCell id="AGJpqr2k6ZOeRzTML1ta-2" value="Game Manager" style="shape=umlLifeline;perimeter=lifelinePerimeter;whiteSpace=wrap;html=1;container=0;dropTarget=0;collapsible=0;recursiveResize=0;outlineConnect=0;portConstraint=eastwest;newEdgeStyle={&quot;edgeStyle&quot;:&quot;elbowEdgeStyle&quot;,&quot;elbow&quot;:&quot;vertical&quot;,&quot;curved&quot;:0,&quot;rounded&quot;:0};" vertex="1" parent="1">
          <mxGeometry x="80" y="40" width="100" height="760" as="geometry" />
        </mxCell>
        <mxCell id="AGJpqr2k6ZOeRzTML1ta-3" value=":item" style="shape=umlLifeline;perimeter=lifelinePerimeter;whiteSpace=wrap;html=1;container=0;dropTarget=0;collapsible=0;recursiveResize=0;outlineConnect=0;portConstraint=eastwest;newEdgeStyle={&quot;edgeStyle&quot;:&quot;elbowEdgeStyle&quot;,&quot;elbow&quot;:&quot;vertical&quot;,&quot;curved&quot;:0,&quot;rounded&quot;:0};" vertex="1" parent="1">
          <mxGeometry x="300" y="40" width="100" height="760" as="geometry" />
        </mxCell>
        <mxCell id="AGJpqr2k6ZOeRzTML1ta-4" value="" style="rounded=1;whiteSpace=wrap;html=1;" vertex="1" parent="1">
          <mxGeometry x="120" y="120" width="20" height="160" as="geometry" />
        </mxCell>
        <mxCell id="AGJpqr2k6ZOeRzTML1ta-5" value="" style="rounded=1;whiteSpace=wrap;html=1;" vertex="1" parent="1">
          <mxGeometry x="340" y="120" width="20" height="160" as="geometry" />
        </mxCell>
        <mxCell id="AGJpqr2k6ZOeRzTML1ta-18" value="" style="endArrow=classic;html=1;rounded=0;exitX=1;exitY=0.25;exitDx=0;exitDy=0;entryX=0;entryY=0.25;entryDx=0;entryDy=0;" edge="1" parent="1" source="AGJpqr2k6ZOeRzTML1ta-4" target="AGJpqr2k6ZOeRzTML1ta-5">
          <mxGeometry width="50" height="50" relative="1" as="geometry">
            <mxPoint x="270" y="220" as="sourcePoint" />
            <mxPoint x="340" y="151" as="targetPoint" />
          </mxGeometry>
        </mxCell>
        <mxCell id="AGJpqr2k6ZOeRzTML1ta-19" value="Activate Item()" style="text;html=1;align=center;verticalAlign=middle;resizable=0;points=[];autosize=1;strokeColor=none;fillColor=none;" vertex="1" parent="1">
          <mxGeometry x="190" y="130" width="100" height="30" as="geometry" />
        </mxCell>
        <mxCell id="AGJpqr2k6ZOeRzTML1ta-20" value="" style="endArrow=classic;html=1;rounded=0;exitX=0;exitY=0.75;exitDx=0;exitDy=0;entryX=1;entryY=0.75;entryDx=0;entryDy=0;" edge="1" parent="1" source="AGJpqr2k6ZOeRzTML1ta-5" target="AGJpqr2k6ZOeRzTML1ta-4">
          <mxGeometry width="50" height="50" relative="1" as="geometry">
            <mxPoint x="240" y="220" as="sourcePoint" />
            <mxPoint x="210" y="230" as="targetPoint" />
          </mxGeometry>
        </mxCell>
        <mxCell id="AGJpqr2k6ZOeRzTML1ta-21" value="Send Item Type()" style="text;html=1;align=center;verticalAlign=middle;resizable=0;points=[];autosize=1;strokeColor=none;fillColor=none;" vertex="1" parent="1">
          <mxGeometry x="180" y="210" width="120" height="30" as="geometry" />
        </mxCell>
        <mxCell id="AGJpqr2k6ZOeRzTML1ta-22" value=":ball" style="shape=umlLifeline;perimeter=lifelinePerimeter;whiteSpace=wrap;html=1;container=0;dropTarget=0;collapsible=0;recursiveResize=0;outlineConnect=0;portConstraint=eastwest;newEdgeStyle={&quot;edgeStyle&quot;:&quot;elbowEdgeStyle&quot;,&quot;elbow&quot;:&quot;vertical&quot;,&quot;curved&quot;:0,&quot;rounded&quot;:0};" vertex="1" parent="1">
          <mxGeometry x="520" y="40" width="100" height="760" as="geometry" />
        </mxCell>
        <mxCell id="AGJpqr2k6ZOeRzTML1ta-24" value="" style="shape=card;whiteSpace=wrap;html=1;rotation=-180;size=20;" vertex="1" parent="1">
          <mxGeometry x="40" y="320" width="45" height="30" as="geometry" />
        </mxCell>
        <mxCell id="AGJpqr2k6ZOeRzTML1ta-25" value="alt" style="text;html=1;align=center;verticalAlign=middle;resizable=0;points=[];autosize=1;strokeColor=none;fillColor=none;fontSize=16;" vertex="1" parent="1">
          <mxGeometry x="40" y="320" width="40" height="30" as="geometry" />
        </mxCell>
        <mxCell id="AGJpqr2k6ZOeRzTML1ta-26" value="[itemType == ballEffect]" style="text;html=1;align=center;verticalAlign=middle;resizable=0;points=[];autosize=1;strokeColor=none;fillColor=none;fontSize=10;" vertex="1" parent="1">
          <mxGeometry x="175" y="325" width="130" height="30" as="geometry" />
        </mxCell>
        <mxCell id="AGJpqr2k6ZOeRzTML1ta-27" value="" style="rounded=1;whiteSpace=wrap;html=1;" vertex="1" parent="1">
          <mxGeometry x="120" y="355" width="20" height="120" as="geometry" />
        </mxCell>
        <mxCell id="AGJpqr2k6ZOeRzTML1ta-28" value="" style="rounded=1;whiteSpace=wrap;html=1;" vertex="1" parent="1">
          <mxGeometry x="560" y="355" width="20" height="120" as="geometry" />
        </mxCell>
        <mxCell id="AGJpqr2k6ZOeRzTML1ta-30" value="" style="endArrow=classic;html=1;rounded=0;exitX=1;exitY=0.25;exitDx=0;exitDy=0;entryX=0;entryY=0.25;entryDx=0;entryDy=0;" edge="1" parent="1" source="AGJpqr2k6ZOeRzTML1ta-27" target="AGJpqr2k6ZOeRzTML1ta-28">
          <mxGeometry width="50" height="50" relative="1" as="geometry">
            <mxPoint x="230" y="320" as="sourcePoint" />
            <mxPoint x="280" y="270" as="targetPoint" />
          </mxGeometry>
        </mxCell>
        <mxCell id="AGJpqr2k6ZOeRzTML1ta-31" value="Add Effect()" style="text;html=1;align=center;verticalAlign=middle;resizable=0;points=[];autosize=1;strokeColor=none;fillColor=none;" vertex="1" parent="1">
          <mxGeometry x="195" y="360" width="90" height="30" as="geometry" />
        </mxCell>
        <mxCell id="AGJpqr2k6ZOeRzTML1ta-33" value="" style="endArrow=none;dashed=1;html=1;rounded=0;exitX=0;exitY=1;exitDx=0;exitDy=0;entryX=1;entryY=1;entryDx=0;entryDy=0;" edge="1" parent="1">
          <mxGeometry width="50" height="50" relative="1" as="geometry">
            <mxPoint x="40.000000000000114" y="500" as="sourcePoint" />
            <mxPoint x="680" y="500" as="targetPoint" />
          </mxGeometry>
        </mxCell>
        <mxCell id="AGJpqr2k6ZOeRzTML1ta-34" value="" style="rounded=1;whiteSpace=wrap;html=1;" vertex="1" parent="1">
          <mxGeometry x="120" y="530" width="20" height="120" as="geometry" />
        </mxCell>
        <mxCell id="AGJpqr2k6ZOeRzTML1ta-35" value="" style="rounded=1;whiteSpace=wrap;html=1;" vertex="1" parent="1">
          <mxGeometry x="130" y="560" width="20" height="50" as="geometry" />
        </mxCell>
        <mxCell id="AGJpqr2k6ZOeRzTML1ta-36" value="" style="endArrow=classic;html=1;rounded=0;exitX=1.1;exitY=0.604;exitDx=0;exitDy=0;exitPerimeter=0;entryX=1;entryY=0.25;entryDx=0;entryDy=0;" edge="1" parent="1">
          <mxGeometry width="50" height="50" relative="1" as="geometry">
            <mxPoint x="140" y="540" as="sourcePoint" />
            <mxPoint x="148" y="588" as="targetPoint" />
            <Array as="points">
              <mxPoint x="178" y="540" />
              <mxPoint x="178" y="588" />
            </Array>
          </mxGeometry>
        </mxCell>
        <mxCell id="AGJpqr2k6ZOeRzTML1ta-37" value="Add Effect()" style="text;html=1;align=center;verticalAlign=middle;resizable=0;points=[];autosize=1;strokeColor=none;fillColor=none;fontSize=11;" vertex="1" parent="1">
          <mxGeometry x="170" y="550" width="80" height="30" as="geometry" />
        </mxCell>
      </root>
    </mxGraphModel>
  </diagram>
</mxfile>
